<svg id="layer" xmlns="http://www.w3.org/2000/svg" viewBox="0 0 600.1 148.6"><defs><style>.cls-1,.cls-2{fill:#fff;}.cls-2{fill-rule:evenodd;}</style></defs><title>github-logo-white</title><path class="cls-1" d="M389.1,360.9h-.2c.1,0,.1.1.2.1h.1Zm0,.1c-.8,0-2.9.4-5.1.4-6.9,0-9.3-3.2-9.3-7.4V326.2h14.1a1.52,1.52,0,0,0,1.4-1.7V309.4a1.52,1.52,0,0,0-1.4-1.5H374.7V289.1c0-.7-.5-1.1-1.3-1.1H354.2a1.08,1.08,0,0,0-1.2,1.1v19.3s-9.7,2.4-10.3,2.5a1.5,1.5,0,0,0-1.1,1.5v12.1a1.59,1.59,0,0,0,1.5,1.7h9.8v29.2c0,21.7,15.1,23.9,25.4,23.9a36.09,36.09,0,0,0,11.3-2,1.49,1.49,0,0,0,.8-1.4V362.6a1.6,1.6,0,0,0-1.3-1.6Zm210.6-19.5c0-16.1-6.5-18.2-13.3-17.5a22.54,22.54,0,0,0-9.6,3v31.3a21.52,21.52,0,0,0,10.8,3.2c9.1.2,12.1-3.1,12.1-20Zm21.6-1.4c0,30.5-9.9,39.2-27.1,39.2-14.6,0-22.4-7.4-22.4-7.4s-.3,4.1-.8,4.6a1.36,1.36,0,0,1-1.3.7H556.6a1.66,1.66,0,0,1-1.7-1.5l.2-98.7a1.54,1.54,0,0,1,1.5-1.5h18.9A1.54,1.54,0,0,1,577,277v33.5a36,36,0,0,1,18-4.7l-.1-.2c10.6,0,26.4,4,26.4,34.5ZM543.8,308H525.1c-1,0-1.5.7-1.5,1.7V358a22.22,22.22,0,0,1-11.6,3.4c-6.6,0-8.6-3-8.6-9.7V309.5a1.54,1.54,0,0,0-1.5-1.5h-19a1.54,1.54,0,0,0-1.5,1.5V355c0,19.5,10.9,24.4,25.9,24.4,12.4,0,22.4-6.8,22.4-6.8s.5,3.5.7,4a1.68,1.68,0,0,0,1.4.8h11.9a1.42,1.42,0,0,0,1.5-1.5l.2-66.4a1.5,1.5,0,0,0-1.6-1.5Zm-210.6-.1H314.3a1.69,1.69,0,0,0-1.5,1.8v65.2c0,1.8,1.2,2.4,2.7,2.4h17.1c1.8,0,2.2-.8,2.2-2.4V309.4a1.71,1.71,0,0,0-1.6-1.5Zm-9.4-30.1a12.3,12.3,0,1,0,12.1,12.3,12.23,12.23,0,0,0-12.1-12.3Zm146.6-2.2H451.6a1.54,1.54,0,0,0-1.5,1.5v36.3H420.7V277.1a1.54,1.54,0,0,0-1.5-1.5H400.3a1.54,1.54,0,0,0-1.5,1.5v98.7a1.61,1.61,0,0,0,1.5,1.5h18.9a1.54,1.54,0,0,0,1.5-1.5V333.6h29.4l-.2,42.2a1.54,1.54,0,0,0,1.5,1.5h18.9a1.54,1.54,0,0,0,1.5-1.5V277.1a1.39,1.39,0,0,0-1.4-1.5ZM302.7,319.3v51c0,.3-.1,1-.5,1.1,0,0-11.1,7.9-29.4,7.9-22.1,0-48.4-6.9-48.4-52.6s22.9-55.1,45.3-55c19.4,0,27.2,4.4,28.4,5.2a2.37,2.37,0,0,1,.5,1.2L295,294a1.51,1.51,0,0,1-1.8,1.5c-3.2-1-8-2.9-19.3-2.9-13.1,0-27.1,3.7-27.1,33.2s13.3,32.9,22.9,32.9c8.2,0,11.1-1,11.1-1V337.3H267.7a1.59,1.59,0,0,1-1.7-1.5V319.4a1.59,1.59,0,0,1,1.7-1.5H301a1.46,1.46,0,0,1,1.7,1.4Z" transform="translate(-21.2 -246.4)"/><path class="cls-2" d="M97.4,246.4A76.21,76.21,0,0,0,73.3,394.9c3.8.6,5.3-1.6,5.3-3.6,0-1.8-.1-7.8-.1-14.2-19.1,3.5-24.1-4.7-25.6-8.9-.9-2.2-4.6-9-7.8-10.8-2.7-1.4-6.5-5-.1-5.1,6-.1,10.3,5.5,11.7,7.8,6.9,11.5,17.8,8.3,22.2,6.3.7-4.9,2.7-8.3,4.9-10.2-16.9-1.9-34.7-8.5-34.7-37.6a29.88,29.88,0,0,1,7.8-20.5c-.8-1.9-3.4-9.7.8-20.2,0,0,6.4-2,21,7.8a70.72,70.72,0,0,1,38,0c14.6-9.9,20.9-7.8,20.9-7.8,4.2,10.5,1.5,18.3.8,20.2a29.25,29.25,0,0,1,7.8,20.5c0,29.2-17.8,35.7-34.8,37.6,2.8,2.4,5.2,6.9,5.2,14.1,0,10.2-.1,18.4-.1,20.9,0,2,1.4,4.4,5.2,3.6A76.19,76.19,0,0,0,97.4,246.4Z" transform="translate(-21.2 -246.4)"/></svg>